<svg width="121.801" height="108.1" viewBox="0 0 121.801 108.1" xmlns="http://www.w3.org/2000/svg"><g id="svgGroup" stroke-linecap="round" fill-rule="evenodd" font-size="9pt" stroke="#000" stroke-width="0.25mm" fill="black" style="stroke:#000;stroke-width:0.25mm;fill:black"><path d="M 39.501 35.3 L 39.501 35.1 A 6.023 6.023 0 0 1 39.543 34.352 Q 39.64 33.58 39.961 33.218 A 0.942 0.942 0 0 1 40.701 32.9 L 41.201 32.9 L 41.301 33 L 41.401 33 A 13.584 13.584 0 0 0 44.132 33.696 Q 45.392 33.887 46.811 33.899 A 22.504 22.504 0 0 0 47.001 33.9 A 27.367 27.367 0 0 0 51.745 33.469 A 33.367 33.367 0 0 0 54.351 32.9 A 41.699 41.699 0 0 0 57.518 31.948 Q 59.128 31.391 60.5 30.743 A 24.462 24.462 0 0 0 61.001 30.5 Q 64.001 28.9 67.501 26.7 Q 71.001 24.5 73.501 21.4 Q 76.001 18.3 76.001 14.2 A 7.239 7.239 0 0 0 75.622 11.808 A 6.123 6.123 0 0 0 73.851 9.2 Q 71.831 7.415 68.62 6.424 A 20.883 20.883 0 0 0 68.201 6.3 Q 64.701 5.3 60.701 4.9 Q 56.701 4.5 53.001 4.5 Q 50.201 4.5 47.801 4.6 Q 45.401 4.7 44.001 4.9 Q 41.901 5.1 38.201 5.65 Q 34.501 6.2 30.151 7.2 Q 25.801 8.2 21.451 9.55 Q 17.101 10.9 13.401 12.65 Q 10.284 14.124 8.232 15.882 A 15.092 15.092 0 0 0 7.501 16.55 Q 5.301 18.7 5.301 21.3 A 4.776 4.776 0 0 0 6.87 24.948 A 6.15 6.15 0 0 0 7.351 25.35 A 7.414 7.414 0 0 0 10.233 26.654 Q 11.292 26.892 12.521 26.9 A 13.119 13.119 0 0 0 12.601 26.9 A 14.96 14.96 0 0 0 15.651 26.565 Q 17.071 26.269 18.618 25.711 A 29.035 29.035 0 0 0 20.051 25.15 A 23.87 23.87 0 0 0 23.974 23.015 Q 25.778 21.816 27.61 20.206 A 42.736 42.736 0 0 0 28.501 19.4 A 1.758 1.758 0 0 1 28.582 19.323 Q 28.705 19.215 28.781 19.202 A 0.117 0.117 0 0 1 28.801 19.2 A 0.249 0.249 0 0 1 29.039 19.348 Q 29.101 19.472 29.101 19.7 A 1.696 1.696 0 0 1 29.069 20.004 Q 29.01 20.323 28.841 20.776 A 10.584 10.584 0 0 1 28.651 21.25 Q 28.201 22.3 27.301 23.1 Q 23.801 26.3 19.551 27.85 A 25.98 25.98 0 0 1 14.592 29.144 A 21.666 21.666 0 0 1 11.301 29.4 A 20.357 20.357 0 0 1 11.285 29.4 A 21.636 21.636 0 0 1 9.251 29.3 A 17.269 17.269 0 0 1 8.004 29.137 A 14.106 14.106 0 0 1 7.301 29 A 10.735 10.735 0 0 1 4.453 27.911 A 8.747 8.747 0 0 1 1.951 25.8 Q 0.001 23.4 0.001 20.3 Q 0.001 15.9 3.051 12.65 A 22.461 22.461 0 0 1 6.842 9.451 Q 8.757 8.152 11.101 7.05 A 57.773 57.773 0 0 1 18.779 4.111 A 67.91 67.91 0 0 1 22.051 3.2 Q 28.001 1.7 33.801 0.8 A 45.596 45.596 0 0 1 36.204 0.469 Q 37.473 0.327 38.892 0.227 A 77.163 77.163 0 0 1 39.301 0.2 Q 42.401 0 45.901 0 A 94.304 94.304 0 0 1 56.144 0.574 A 104.579 104.579 0 0 1 57.651 0.75 A 55.449 55.449 0 0 1 65.568 2.301 A 47.935 47.935 0 0 1 68.901 3.35 A 26.471 26.471 0 0 1 73.203 5.304 A 19.397 19.397 0 0 1 77.301 8.4 A 10.809 10.809 0 0 1 80.479 15.708 A 14.393 14.393 0 0 1 80.501 16.5 A 15.103 15.103 0 0 1 78.04 24.739 A 18.019 18.019 0 0 1 78.001 24.8 Q 75.501 28.7 71.251 31.65 A 34.296 34.296 0 0 1 62.848 35.874 A 38.97 38.97 0 0 1 61.701 36.25 Q 56.401 37.9 50.901 37.9 Q 48.501 37.9 46.201 37.6 Q 45.601 37.5 45.101 37.4 L 44.101 37.2 Q 45.401 40 47.551 43.55 A 70.471 70.471 0 0 0 50.838 48.479 A 83.095 83.095 0 0 0 52.551 50.75 Q 55.401 54.4 58.651 57.5 A 36.393 36.393 0 0 0 62.354 60.608 A 29.384 29.384 0 0 0 65.301 62.5 A 16.285 16.285 0 0 0 68.237 63.799 A 11.887 11.887 0 0 0 71.901 64.4 A 9.977 9.977 0 0 0 73.275 64.312 Q 73.971 64.215 74.533 64.011 A 3.901 3.901 0 0 0 75.651 63.4 Q 76.901 62.4 76.901 59.9 A 9.723 9.723 0 0 0 76.761 58.33 Q 76.499 56.741 75.75 54.685 A 32.571 32.571 0 0 0 75.701 54.55 Q 74.876 52.316 74.145 50.578 A 56.201 56.201 0 0 0 73.501 49.1 Q 73.419 49.019 73.404 48.806 A 1.484 1.484 0 0 1 73.401 48.7 A 1.568 1.568 0 0 1 73.425 48.411 Q 73.521 47.9 74.001 47.9 A 0.753 0.753 0 0 1 74.455 48.059 Q 74.69 48.232 74.898 48.595 A 2.915 2.915 0 0 1 74.901 48.6 A 35.109 35.109 0 0 1 75.823 50.186 A 28.908 28.908 0 0 1 76.301 51.1 Q 76.901 52.3 78.101 55.5 A 38.492 38.492 0 0 1 79.051 58.556 Q 79.801 61.409 79.801 63.6 A 11.456 11.456 0 0 1 79.535 66.143 Q 79.027 68.373 77.551 69.85 A 7.207 7.207 0 0 1 74.49 71.634 Q 73.347 71.982 71.967 72.07 A 15.138 15.138 0 0 1 71.001 72.1 A 14.459 14.459 0 0 1 65.96 71.154 A 20.278 20.278 0 0 1 62.401 69.4 A 38.527 38.527 0 0 1 57.018 65.38 A 48.284 48.284 0 0 1 53.901 62.35 Q 49.801 58 46.551 53 A 64.005 64.005 0 0 1 43.361 47.545 A 50.132 50.132 0 0 1 41.401 43.3 A 33.872 33.872 0 0 1 40.339 40.3 Q 39.897 38.819 39.688 37.509 A 14.064 14.064 0 0 1 39.501 35.3 Z M 106.001 65.3 L 106.001 64.6 Q 106.001 62.8 105.851 59.7 Q 105.701 56.6 105.501 53.2 Q 105.301 49.8 105.101 47.2 Q 104.901 47.9 104.701 48.55 Q 104.501 49.2 104.301 49.8 Q 103.401 53.2 102.201 57.1 A 54.942 54.942 0 0 1 100.222 62.532 A 47.753 47.753 0 0 1 99.401 64.35 Q 97.855 67.587 95.888 69.704 A 15.442 15.442 0 0 1 95.751 69.85 A 7.865 7.865 0 0 1 94.185 71.139 A 5.607 5.607 0 0 1 91.201 72 A 6.881 6.881 0 0 1 89.322 71.756 A 5.247 5.247 0 0 1 87.001 70.4 A 9.452 9.452 0 0 1 85.116 67.665 A 11.881 11.881 0 0 1 84.601 66.35 Q 83.801 63.9 83.501 61.3 A 48.945 48.945 0 0 1 83.28 58.899 Q 83.206 57.759 83.201 56.736 A 29.736 29.736 0 0 1 83.201 56.6 A 62.118 62.118 0 0 1 84.422 44.128 A 56.24 56.24 0 0 1 85.051 41.4 A 27.279 27.279 0 0 1 87.286 35.482 A 20.818 20.818 0 0 1 91.501 29.9 A 14.41 14.41 0 0 1 93.409 28.36 A 10.828 10.828 0 0 1 95.651 27.2 A 13.562 13.562 0 0 1 97.675 26.613 A 10.161 10.161 0 0 1 99.701 26.4 A 9.721 9.721 0 0 1 103.207 27.027 A 9.25 9.25 0 0 1 103.951 27.35 A 9.828 9.828 0 0 1 105.907 28.593 A 8.204 8.204 0 0 1 107.101 29.8 A 6.165 6.165 0 0 1 108.156 28.813 A 4.541 4.541 0 0 1 109.801 28.05 Q 111.142 27.737 112.244 27.704 A 8.562 8.562 0 0 1 112.501 27.7 L 113.701 27.7 Q 115.201 27.7 115.201 28.3 A 0.314 0.314 0 0 1 115.173 28.418 Q 115.104 28.587 114.856 28.844 A 4.17 4.17 0 0 1 114.801 28.9 A 3.157 3.157 0 0 0 114.22 29.629 Q 113.761 30.393 113.43 31.641 A 15.521 15.521 0 0 0 113.251 32.4 Q 112.779 34.632 112.564 37.564 A 59.343 59.343 0 0 0 112.501 38.55 Q 112.301 42.1 112.301 45.9 A 336.928 336.928 0 0 0 112.357 52.153 A 296.496 296.496 0 0 0 112.401 54.15 A 472.205 472.205 0 0 1 112.444 56.016 Q 112.483 57.827 112.495 59.173 A 126.246 126.246 0 0 1 112.501 60.3 L 112.501 61.4 Q 114.644 60.098 116.436 59.178 A 40.679 40.679 0 0 1 117.501 58.65 A 19.904 19.904 0 0 1 118.532 58.191 Q 119.976 57.6 120.801 57.6 A 1.287 1.287 0 0 1 120.905 57.604 Q 121.029 57.614 121.101 57.65 A 0.482 0.482 0 0 0 121.213 57.69 A 0.408 0.408 0 0 0 121.301 57.7 A 0.651 0.651 0 0 1 121.559 57.807 Q 121.789 57.974 121.8 58.36 A 1.38 1.38 0 0 1 121.801 58.4 Q 121.801 58.8 121.601 59.15 Q 121.401 59.5 121.001 59.5 A 4.19 4.19 0 0 0 120.213 59.652 Q 119.431 59.874 118.403 60.399 A 19.315 19.315 0 0 0 117.751 60.75 Q 115.701 61.9 114.001 63.35 Q 112.713 64.448 112.401 65.346 A 1.683 1.683 0 0 0 112.301 65.9 L 112.301 67.5 Q 112.301 81.3 109.451 90.3 Q 107.443 96.639 104.494 100.695 A 20.544 20.544 0 0 1 101.851 103.7 A 17.985 17.985 0 0 1 97.851 106.549 A 13.737 13.737 0 0 1 91.501 108.1 A 17.281 17.281 0 0 1 88.674 107.885 Q 85.344 107.332 83.651 105.35 A 9.725 9.725 0 0 1 81.399 100.117 A 12.993 12.993 0 0 1 81.301 98.5 A 19.73 19.73 0 0 1 81.72 94.54 A 25.114 25.114 0 0 1 82.401 91.95 Q 83.501 88.5 85.201 85.1 A 32.666 32.666 0 0 1 90.832 77.278 A 36.768 36.768 0 0 1 91.301 76.8 A 70.365 70.365 0 0 1 97.608 71.186 A 62.77 62.77 0 0 1 99.101 70.05 A 150.811 150.811 0 0 1 101.946 67.999 Q 103.067 67.212 104.081 66.537 A 71.967 71.967 0 0 1 106.001 65.3 Z M 38.301 7.8 L 38.801 7.8 Q 40.31 7.8 41.389 8.145 A 4.583 4.583 0 0 1 42.401 8.6 A 3.791 3.791 0 0 1 43.456 9.592 Q 44.018 10.352 44.401 11.5 A 88.586 88.586 0 0 0 44.117 12.428 Q 43.729 13.721 43.105 15.89 A 781.599 781.599 0 0 0 42.701 17.3 Q 41.876 20.188 40.956 23.855 A 334.624 334.624 0 0 0 40.101 27.35 Q 38.701 33.2 37.451 40 Q 36.201 46.8 35.701 53.6 Q 35.601 55.3 35.451 57.4 Q 35.301 59.5 35.301 61.6 A 43.034 43.034 0 0 0 35.482 65.614 A 37.057 37.057 0 0 0 35.651 67.1 A 16.753 16.753 0 0 0 35.973 68.84 Q 36.324 70.275 36.901 71.3 A 3.76 3.76 0 0 0 37.527 72.139 A 2.567 2.567 0 0 0 39.401 72.9 Q 40.401 72.9 41.501 72.5 A 7.925 7.925 0 0 0 41.972 72.313 Q 42.671 72.006 42.901 71.7 L 43.601 71.7 A 7.76 7.76 0 0 1 43.204 73.473 A 5.243 5.243 0 0 1 41.601 75.8 Q 39.901 77.2 37.801 77.2 Q 35.501 77.2 33.251 75.4 Q 31.21 73.767 30.362 70.571 A 14.888 14.888 0 0 1 30.201 69.9 A 52.708 52.708 0 0 1 29.339 64.161 Q 29.054 61.228 29.009 57.933 A 90.981 90.981 0 0 1 29.001 56.7 A 132.242 132.242 0 0 1 29.518 45.196 A 147.492 147.492 0 0 1 29.701 43.25 Q 30.401 36.3 31.601 29.6 Q 32.801 22.9 34.251 17.35 A 100.948 100.948 0 0 1 35.322 13.537 Q 35.845 11.816 36.374 10.343 A 45.936 45.936 0 0 1 37.201 8.2 A 0.947 0.947 0 0 1 37.357 8.017 A 0.674 0.674 0 0 1 37.701 7.85 Q 38.001 7.8 38.301 7.8 Z M 90.401 106 A 9.146 9.146 0 0 0 97.166 103.045 A 14.116 14.116 0 0 0 98.601 101.3 Q 100.99 97.897 102.62 92.475 A 58.072 58.072 0 0 0 103.751 88.05 A 94.458 94.458 0 0 0 105.101 80.043 Q 105.817 74.427 106.101 67.8 A 12.917 12.917 0 0 0 105.194 68.369 Q 103.692 69.389 101.255 71.454 A 105.99 105.99 0 0 0 101.201 71.5 Q 97.901 74.3 94.351 78.45 A 39.219 39.219 0 0 0 88.744 87.16 A 44.029 44.029 0 0 0 88.401 87.9 A 36.987 36.987 0 0 0 86.953 91.642 A 31.239 31.239 0 0 0 86.401 93.55 A 24.283 24.283 0 0 0 85.887 96.108 A 17.675 17.675 0 0 0 85.701 98.6 A 14.346 14.346 0 0 0 85.848 100.721 Q 86.024 101.891 86.406 102.853 A 7.248 7.248 0 0 0 86.951 103.95 A 4.815 4.815 0 0 0 87.91 105.107 A 3.691 3.691 0 0 0 90.401 106 Z M 93.801 63.9 L 94.101 63.9 Q 96.001 63.9 97.551 61.4 A 21.956 21.956 0 0 0 98.761 59.146 Q 99.291 58.015 99.779 56.698 A 42.245 42.245 0 0 0 100.351 55.05 Q 101.601 51.2 102.551 47.05 Q 103.47 43.034 104.062 39.767 A 115.201 115.201 0 0 0 104.101 39.55 Q 104.678 36.325 104.978 34.815 A 72.826 72.826 0 0 1 105.001 34.7 A 13.787 13.787 0 0 1 105.425 32.882 Q 105.729 31.9 106.168 31.098 A 7.911 7.911 0 0 1 106.401 30.7 Q 105.301 29.3 103.301 29.3 Q 100.301 29.3 98.151 31.2 A 13.547 13.547 0 0 0 95.844 33.879 A 17.902 17.902 0 0 0 94.551 36.2 Q 93.101 39.3 92.251 42.75 A 62.223 62.223 0 0 0 91.364 46.945 A 52.556 52.556 0 0 0 91.001 49.35 Q 90.713 51.617 90.632 53.34 A 27.017 27.017 0 0 0 90.601 54.6 Q 90.601 55.3 90.651 56.8 A 20.568 20.568 0 0 0 90.838 58.933 A 24.331 24.331 0 0 0 91.001 59.95 Q 91.279 61.48 91.858 62.581 A 6.477 6.477 0 0 0 91.951 62.75 A 2.607 2.607 0 0 0 92.43 63.375 A 1.929 1.929 0 0 0 93.801 63.9 Z" vector-effect="non-scaling-stroke"/></g></svg>